# xmcd
#
# Track frame offsets: 
#        150
#        12647
#        28755
#        41972
#        54690
#        68992
#        83607
#        98617
#        112717
#        126922
#        141917
#        156767
#        171427
#        184827
#        199137
#        214330
#        229275
#        244112
#        259610
#        272667
#        286937
#        302942
#
# Disc length: 4237 seconds
#
# Revision: 4
# Processed by: cddbd v1.5.2PL0 Copyright (c) Steve Scherf et al.
# Submitted via: ExactAudioCopyFreeDBPlugin 1.0
#
DISCID=48108b16
DTITLE=Bessie Smith - The Complete Recordings [Frog Records]
DYEAR=2001
DGENRE=Blues
TTITLE0=Graveyard Dream Blues
TTITLE1=Cemetery Blues
TTITLE2=Far Away Blues
TTITLE3=I'm Going Back to My Used to Be
TTITLE4=Whoa, Tillie, Take Your Time
TTITLE5=My Sweetie Went Away
TTITLE6=Any Woman's Blues
TTITLE7=Chicago Bound Blues
TTITLE8=Mistreatin' Daddy
TTITLE9=Frosty Mornin' Blues (take 1)
TTITLE10=Frosty Mornin' Blues (take 4)
TTITLE11=Haunted House Blues
TTITLE12=Eavesdropper's Blues
TTITLE13=Easy Come, Easy Go Blues
TTITLE14=Sorrowful Blues
TTITLE15=Pinchbacks - Take 'Em Away
TTITLE16=Rockin' Chair Blues
TTITLE17=Ticket Agent Ease Your Window Down
TTITLE18=Boweavil Blues
TTITLE19=Hateful Blues
TTITLE20=Frankie Blues
TTITLE21=Moonshine Blues
EXTD=YEAR: 2001
EXTT0=
EXTT1=
EXTT2=
EXTT3=
EXTT4=
EXTT5=
EXTT6=
EXTT7=
EXTT8=
EXTT9=
EXTT10=
EXTT11=
EXTT12=
EXTT13=
EXTT14=
EXTT15=
EXTT16=
EXTT17=
EXTT18=
EXTT19=
EXTT20=
EXTT21=
PLAYORDER=
